<svg xmlns="http://www.w3.org/2000/svg" viewBox="0 0 485.47 479.89"><g id="Layer_2" data-name="Layer 2"><g id="Capa_1" data-name="Capa 1"><g id="t3qUcv"><path d="M249.69,40.7c-51.79.59-93,15-129.22,43.54-2.57,2-5,4.23-7.6,6.2-10.39,7.84-22,7.07-29.47-1.88-7.75-9.3-6.8-20.39,3.31-29.26a232.64,232.64,0,0,1,75.42-44.65C306.21-37,457.8,52.93,482.53,204.64c20.53,125.89-68.91,250.44-194.94,271.44Q175.9,494.68,88.67,422.46c-7.3-6-12.51-13.1-9.4-23.3,4.65-15.24,21.16-19.78,34.32-8.8,23.22,19.38,48.92,33.72,78.18,41.73C303,462.53,414.87,394.46,440.11,280.94,464.36,171.88,390.06,63,278.11,43.88,266.88,42,255.43,41.32,249.69,40.7Z"/><path d="M347.46,219.91c0,22.44.78,43.6-.33,64.65-.55,10.4-8.36,16.54-19.12,17.23-10.08.64-18.69-6.54-20.6-17.13-.72-4-.43-8.13-.61-12.2-.17-3.6-.35-7.19-.56-11.47H262.35c0,8.61-.06,17.37,0,26.14.07,8-2.95,14.17-11.49,14.35-8.74.18-11.62-6.1-11.57-14.06.06-8.5,0-17,0-27.12-22.56,0-44-.38-65.49.45-2.9.11-6.51,5.94-8.18,9.81C151,304.62,125.16,323.82,88.38,325.2c-34.72,1.3-61.53-14.68-78.21-45.31-23.29-42.74-5.06-96.24,39.15-117.2,43.43-20.59,96.36-1,114.38,43.84,4.63,11.51,10.23,13.76,21.34,13.63,49.4-.58,98.82-.25,148.23-.25ZM41.24,239.84c-.18,25.59,19,45.29,44.26,45.39a44.28,44.28,0,0,0,44.72-43.86c.42-25.46-18.79-45.65-43.8-46C61.22,195,41.43,214.45,41.24,239.84Z"/></g></g></g></svg>