<svg id="Layer_1" data-name="Layer 1" xmlns="http://www.w3.org/2000/svg" viewBox="0 0 27.09 29.37"><defs><style>.cls-1{fill:#010101;}</style></defs><path d="M15,16.6A8,8,0,0,1,6.9,8.5a8.1,8.1,0,1,1,16.2.2A8,8,0,0,1,15,16.6ZM9.8,13v-.5a5.06,5.06,0,0,1,1.7-3.2c.1-.1.3-.2.3-.3a.76.76,0,0,0-.2-.4,3.66,3.66,0,0,1-.3-2.7,3.74,3.74,0,0,1,3.2-2.8,9.65,9.65,0,0,1,1.7,0,.43.43,0,0,1,.4.4c0,.4-.4.8-.8.6a3.4,3.4,0,0,0-1-.1,2.77,2.77,0,0,0-2.3,2.7,2.62,2.62,0,0,0,2.8,2.6,2.54,2.54,0,0,0,2-1.2,3.2,3.2,0,0,0,.5-1.9c0-.5.4-.7.9-.5.2.1.3.2.3.4v.4a4.65,4.65,0,0,1-.6,2.3c-.1.1,0,.2.1.2a5.1,5.1,0,0,1,1.9,3.4V13A7,7,0,0,0,9.8,4,6.71,6.71,0,0,0,9.8,13Zm9.3.5v-.3a4,4,0,0,0-1.5-3.1c-.1-.1-.2-.1-.2,0s-.3.2-.4.3a3.88,3.88,0,0,1-3.9-.3c-.1-.1-.2-.1-.2,0a3.84,3.84,0,0,0-1.5,2.4c-.1.5,0,1.1-.1,1.6,0,.2.1.3.2.3a7.26,7.26,0,0,0,2.8,1,4.87,4.87,0,0,0,1.2.1,12.34,12.34,0,0,0,3.7-1.2c.1,0,.1-.1.1-.2A.73.73,0,0,1,19.1,13.5Z" transform="translate(-2.53 -0.4)"/><path d="M18,4.5a.6.6,0,1,1-1.2,0,.65.65,0,0,1,.6-.6A.58.58,0,0,1,18,4.5Z" transform="translate(-2.53 -0.4)"/><path d="M9.5,21.3a.6.6,0,1,1,.6-.6A.53.53,0,0,1,9.5,21.3Z" transform="translate(-2.53 -0.4)"/><path d="M12.5,21.3a.6.6,0,1,1,.6-.6A.53.53,0,0,1,12.5,21.3Z" transform="translate(-2.53 -0.4)"/><path d="M7,20.7a.53.53,0,0,1-.6.6.6.6,0,1,1,.6-.6Z" transform="translate(-2.53 -0.4)"/><path d="M18.6,21.3a.53.53,0,0,1-.6-.6.58.58,0,0,1,.6-.6.65.65,0,0,1,.6.6C19.3,21.1,19,21.3,18.6,21.3Z" transform="translate(-2.53 -0.4)"/><path d="M16.1,20.7a.58.58,0,0,1-.6.6.65.65,0,0,1-.6-.6.6.6,0,1,1,1.2,0Z" transform="translate(-2.53 -0.4)"/><path d="M25.58,17.75l.1.05a3,3,0,0,0-1.09-.28A5.42,5.42,0,0,1,25.58,17.75Z" transform="translate(-2.53 -0.4)"/><path d="M11.9,24.2c0-.1,0-.1.1-.1h5.59a9.39,9.39,0,0,1,0-1.3H16.3c-1.6,0-3.2,0-4.7.1-.2,0-.4,0-.4-.2v-.1c-.2-.5-.7-.7-1.1-.3-.3.2-.5.4-.8.6A.37.37,0,0,1,9,23H5.9a2.19,2.19,0,0,1-2.3-1.8,2.25,2.25,0,0,1,2-2.6H20.08l.15-.12a6.32,6.32,0,0,1,2.56-1H5.3a3.41,3.41,0,0,0-2.7,4,3.29,3.29,0,0,0,3.2,2.6H7.6c-.1,0-.1.1-.3.1a.55.55,0,0,0-.3.5,1,1,0,0,0,.7,1.2c.1,0,.1.1.1.2a18.92,18.92,0,0,1-.5,2.3c-.1.4,0,.7.4.8.6.2,1.3.3,1.9.5.2.1.3.1.4,0a1,1,0,0,0,.4-.5c.2-.7.3-1.5.5-2.2.1-.2.1-.2.3-.2a1.45,1.45,0,0,0,.7-.2,1.13,1.13,0,0,0,.4-1.3C12.2,24.9,12,24.6,11.9,24.2Zm-1,1.4a.51.51,0,0,0-.7.4c-.2.8-.4,1.5-.6,2.3-.1.1-.1.1-.2.1s-.3-.1-.5-.1-.1-.1-.1-.2c.2-.7.4-1.5.6-2.3.1-.4,0-.7-.4-.8-.1,0-.2-.1-.3-.1s-.1,0,0-.1.3-.2.4-.3c.4-.3.7-.6,1.1-.9,0-.1.1-.1.1,0,.2.7.5,1.4.7,2.1C10.9,25.7,10.8,25.6,10.9,25.6Z" transform="translate(-2.53 -0.4)"/><path class="cls-1" d="M23.62,23.52Z" transform="translate(-2.53 -0.4)"/><g id="Layer_2" data-name="Layer 2"><g id="Layer_1-2" data-name="Layer 1-2"><path d="M23.33,18.1a5.88,5.88,0,0,0-2.61.94,7.3,7.3,0,0,0-1.55,1.54,5.9,5.9,0,0,0-.84,2.1,6.6,6.6,0,0,0,0,2.08,5.67,5.67,0,0,0,3.18,4.15,5.35,5.35,0,0,0,2.64.53,5.21,5.21,0,0,0,2.35-.59,5.77,5.77,0,0,0,3.08-4.27,7.22,7.22,0,0,0,0-1.61,5.71,5.71,0,0,0-3.85-4.6,4.88,4.88,0,0,0-1.65-.27ZM25,19.22a4.7,4.7,0,0,1,3.54,3.94,6.46,6.46,0,0,1,0,1.39,4.68,4.68,0,1,1-8.84-2.81,4.76,4.76,0,0,1,3.45-2.59A5.74,5.74,0,0,1,25,19.22Z" transform="translate(-2.53 -0.4)"/><path d="M23.69,21c-.28.13-.29.18-.3,1.23v.94h-.93c-.82,0-.94,0-1,.06a.49.49,0,0,0-.24.65.08.08,0,0,1,0,0c.14.27.19.28,1.24.28h.94v.94c0,.86,0,.93.07,1.05a.55.55,0,0,0,.73.21.53.53,0,0,0,.21-.21c.06-.11.06-.18.06-1.05v-.94h.94c.86,0,.94,0,1.05-.07a.53.53,0,0,0,0-.93c-.1-.06-.23-.07-1-.07h-.94v-.94c0-.93,0-.93-.07-1.05a.57.57,0,0,0-.47-.22Z" transform="translate(-2.53 -0.4)"/></g></g></svg>