<?xml version="1.0" encoding="utf-8"?>
<!-- Generator: Adobe Illustrator 25.2.0, SVG Export Plug-In . SVG Version: 6.00 Build 0)  -->
<svg version="1.1" id="Layer_1" xmlns="http://www.w3.org/2000/svg" xmlns:xlink="http://www.w3.org/1999/xlink" x="0px" y="0px"
	 viewBox="0 0 30 30" style="enable-background:new 0 0 30 30;" xml:space="preserve">
<path d="M2.6,27.9c-0.5,0-0.7-0.1-0.8-0.2l-0.3-0.2l0-0.4c0-0.4,0.3-0.7,1-1.3l0.1-0.1c2.1-1.8,1.8-3.6,1.7-4.1
	c-2-2.1-3.1-4.7-3.1-7.4C1.2,7.5,7.4,2.2,15,2.2c7.6,0,13.8,5.3,13.8,11.8c0,6.5-6.2,11.8-13.8,11.8c-1.5,0-3-0.2-4.4-0.6
	c-1.7,1.1-4.1,2.1-6.8,2.6C3.2,27.8,2.9,27.9,2.6,27.9z M2.9,27.4L2.9,27.4L2.9,27.4z M15,3.8C8.2,3.8,2.8,8.3,2.8,14
	c0,2.4,1,4.7,2.8,6.5l0.1,0.1l0.1,0.2c0.1,0.3,0.9,2.7-1.4,5.3c2.3-0.6,4.4-1.4,5.7-2.4l0.3-0.2l0.4,0.1c1.4,0.4,2.9,0.7,4.3,0.7
	c6.8,0,12.2-4.6,12.2-10.2C27.2,8.3,21.8,3.8,15,3.8z M16.8,21.8h-3.5v-9.5h3.5V21.8z M14.8,20.2h0.5v-6.5h-0.5V20.2z M15,11.2
	c-1.2,0-2.2-1-2.2-2.2s1-2.2,2.2-2.2c1.2,0,2.2,1,2.2,2.2S16.2,11.2,15,11.2z M15,8.2c-0.4,0-0.8,0.3-0.8,0.8s0.3,0.8,0.8,0.8
	s0.8-0.3,0.8-0.8S15.4,8.2,15,8.2z"/>
</svg>
