<?xml version="1.0" encoding="utf-8"?>
<!-- Generator: Adobe Illustrator 23.0.3, SVG Export Plug-In . SVG Version: 6.00 Build 0)  -->
<svg version="1.1" id="Layer_1" xmlns="http://www.w3.org/2000/svg" xmlns:xlink="http://www.w3.org/1999/xlink" x="0px" y="0px"
	 viewBox="0 0 30 30" style="enable-background:new 0 0 30 30;" xml:space="preserve">
<g>
	<path d="M15,16.6c-4.3,0.1-8.1-3.4-8.1-8.1c0-4.5,3.6-8.1,8.1-8.1c4.7,0,8.2,3.9,8.1,8.3C23,13.1,19.4,16.7,15,16.6z M9.8,13
		c0-0.2,0-0.4,0-0.5c0.2-1.3,0.7-2.3,1.7-3.2c0.1-0.1,0.3-0.2,0.3-0.3c0-0.1-0.1-0.3-0.2-0.4c-0.4-0.9-0.6-1.8-0.3-2.7
		c0.4-1.5,1.6-2.6,3.2-2.8c0.6-0.1,1.1,0,1.7,0c0.2,0,0.4,0.2,0.4,0.4c0,0.4-0.4,0.8-0.8,0.6c-0.3-0.1-0.7-0.1-1-0.1
		c-1.4,0.2-2.3,1.5-2.3,2.7c0,1.6,1.5,2.8,2.8,2.6c0.8-0.1,1.5-0.4,2-1.2c0.4-0.6,0.5-1.2,0.5-1.9c0-0.5,0.4-0.7,0.9-0.5
		c0.2,0.1,0.3,0.2,0.3,0.4c0,0.1,0,0.3,0,0.4c0,0.8-0.2,1.6-0.6,2.3c-0.1,0.1,0,0.2,0.1,0.2c1.1,0.9,1.7,2,1.9,3.4
		c0,0.2,0,0.4,0,0.6c2.1-2.5,2.4-6.7-0.5-9.5C16.9,0.7,12.3,1,9.8,4C7.2,6.9,7.8,10.9,9.8,13z M19.1,13.5c0-0.1,0-0.2,0-0.3
		c0-1.3-0.6-2.3-1.5-3.1c-0.1-0.1-0.2-0.1-0.2,0c-0.1,0.1-0.3,0.2-0.4,0.3c-1.4,0.6-2.7,0.5-3.9-0.3c-0.1-0.1-0.2-0.1-0.2,0
		c-0.8,0.6-1.3,1.4-1.5,2.4c-0.1,0.5,0,1.1-0.1,1.6c0,0.2,0.1,0.3,0.2,0.3c0.9,0.5,1.8,0.9,2.8,1c0.4,0.1,0.8,0.1,1.2,0.1
		c1.3-0.2,2.5-0.6,3.7-1.2c0.1,0,0.1-0.1,0.1-0.2C19.1,13.9,19.1,13.7,19.1,13.5z"/>
	<path d="M7.6,24.1c-0.1,0-0.1,0-0.2,0c-0.5,0-1.1,0-1.6,0c-1.4,0-2.9-1-3.2-2.6c-0.4-1.8,0.9-3.7,2.7-4c0.1,0,0.3,0,0.4,0
		c6.2,0,12.5,0,18.7,0c1.5,0,3,1.2,3.2,2.7c0.3,1.8-0.8,3.4-2.6,3.8c-0.2,0-0.4,0.1-0.6,0.1c-4.1,0-8.2,0-12.3,0c0,0-0.1,0-0.1,0
		c-0.1,0-0.1,0-0.1,0.1c0.1,0.4,0.3,0.7,0.4,1.1c0.2,0.4,0,1-0.4,1.3c-0.2,0.1-0.4,0.2-0.7,0.2c-0.2,0-0.2,0-0.3,0.2
		c-0.2,0.7-0.3,1.5-0.5,2.2c-0.1,0.2-0.2,0.4-0.4,0.5c-0.1,0.1-0.2,0.1-0.4,0c-0.6-0.2-1.3-0.3-1.9-0.5c-0.4-0.1-0.5-0.4-0.4-0.8
		c0.2-0.8,0.4-1.5,0.5-2.3c0-0.1,0-0.2-0.1-0.2c-0.5-0.2-0.8-0.6-0.7-1.2c0-0.2,0.1-0.4,0.3-0.5C7.5,24.2,7.5,24.1,7.6,24.1z
		 M16.3,22.8c1.6,0,3.3,0,4.9,0c0.2,0,0.2,0,0.2-0.2c0-1.2,0-2.5,0-3.7c0-0.3,0-0.3-0.3-0.3c-4.9,0-9.7,0-14.6,0c-0.3,0-0.6,0-0.9,0
		c-1.1,0.1-2.2,1.1-2,2.6c0.2,1.1,1.1,1.8,2.3,1.8c1,0,2.1,0,3.1,0c0.1,0,0.2,0,0.3-0.1c0.3-0.2,0.5-0.4,0.8-0.6
		c0.4-0.4,0.9-0.2,1.1,0.3c0,0,0,0.1,0,0.1c0,0.2,0.2,0.2,0.4,0.2C13.1,22.8,14.7,22.8,16.3,22.8z M22.6,20.7c0,0.6,0,1.3,0,1.9
		c0,0.2,0,0.2,0.2,0.2c0.5,0,1,0,1.5,0c0.8,0,1.4-0.3,1.8-1c0.9-1.5-0.3-3.1-1.7-3.2c-0.6,0-1.1,0-1.7,0c-0.2,0-0.2,0.1-0.2,0.2
		C22.6,19.4,22.6,20,22.6,20.7z M11,25.7C11,25.7,11,25.6,11,25.7c-0.2-0.7-0.5-1.4-0.7-2.1c0-0.1-0.1-0.1-0.1,0
		c-0.4,0.3-0.7,0.6-1.1,0.9c-0.1,0.1-0.3,0.2-0.4,0.3c-0.1,0.1-0.1,0.1,0,0.1c0.1,0,0.2,0.1,0.3,0.1c0.4,0.1,0.5,0.4,0.4,0.8
		c-0.2,0.8-0.4,1.6-0.6,2.3c0,0.1,0,0.2,0.1,0.2c0.2,0,0.3,0.1,0.5,0.1c0.1,0,0.1,0,0.2-0.1c0.2-0.8,0.4-1.5,0.6-2.3
		c0.1-0.4,0.4-0.5,0.7-0.4C10.8,25.6,10.9,25.7,11,25.7z"/>
	<path d="M18,4.5c0,0.3-0.3,0.6-0.6,0.6c-0.3,0-0.6-0.3-0.6-0.6c0-0.3,0.3-0.6,0.6-0.6C17.8,3.9,18,4.2,18,4.5z"/>
	<path d="M9.5,21.3c-0.4,0-0.6-0.3-0.6-0.6c0-0.4,0.3-0.6,0.6-0.6c0.4,0,0.6,0.3,0.6,0.6C10.1,21.1,9.9,21.3,9.5,21.3z"/>
	<path d="M12.5,21.3c-0.4,0-0.6-0.3-0.6-0.6c0-0.4,0.3-0.6,0.6-0.6c0.4,0,0.6,0.3,0.6,0.6C13.1,21.1,12.9,21.3,12.5,21.3z"/>
	<path d="M7,20.7c0,0.4-0.2,0.6-0.6,0.6c-0.4,0-0.6-0.3-0.6-0.6c0-0.4,0.3-0.6,0.6-0.6C6.8,20.1,7,20.4,7,20.7z"/>
	<path d="M18.6,21.3c-0.4,0-0.6-0.2-0.6-0.6c0-0.4,0.3-0.6,0.6-0.6c0.3,0,0.6,0.3,0.6,0.6C19.3,21.1,19,21.3,18.6,21.3z"/>
	<path d="M16.1,20.7c0,0.4-0.3,0.6-0.6,0.6c-0.3,0-0.6-0.3-0.6-0.6c0-0.4,0.3-0.6,0.6-0.6C15.9,20.1,16.1,20.4,16.1,20.7z"/>
	<path d="M24.2,22c-0.3,0-0.4-0.1-0.5-0.3c-0.1-0.2-0.1-0.4,0.1-0.6c0.1-0.1,0.2-0.3,0.3-0.4c0.1-0.1,0.1-0.1,0-0.2
		c-0.1-0.1-0.2-0.2-0.3-0.3c-0.2-0.3-0.2-0.6,0.1-0.9c0.2-0.2,0.6-0.2,0.8,0.1c0.3,0.3,0.6,0.7,0.8,1c0.1,0.2,0.1,0.4,0,0.6
		c-0.2,0.3-0.5,0.6-0.7,0.8C24.5,22,24.4,22.1,24.2,22z"/>
</g>
</svg>
