<?xml version="1.0" encoding="utf-8"?>
<!-- Generator: Adobe Illustrator 25.1.0, SVG Export Plug-In . SVG Version: 6.00 Build 0)  -->
<svg version="1.1" id="Layer_1" xmlns="http://www.w3.org/2000/svg" xmlns:xlink="http://www.w3.org/1999/xlink" x="0px" y="0px"
	 viewBox="0 0 30 30" style="enable-background:new 0 0 30 30;" xml:space="preserve">
<style type="text/css">
	.st0{fill:#010101;}
</style>
<g>
	<path d="M18.5,27.4H4.1L1.9,12.8h0.9h1.5h21.6h1.4h0.9l-0.8,4.9c0.4,0.3,0.8,0.6,1.1,1l1-6.2c-0.1-0.2-0.1-0.4-0.2-0.6
		c-0.1-0.1-0.3-0.2-0.5-0.2h-1.3V4.8c0-0.5-0.4-0.9-0.9-0.9H11.9l-1.2-2c-0.2-0.3-0.4-0.4-0.7-0.4H3.4c-0.5,0-0.9,0.4-0.9,0.9v9.3
		H1.2c-0.2,0-0.3,0.1-0.5,0.2c-0.1,0.1-0.2,0.3-0.1,0.5L3,28c0,0.3,0.3,0.5,0.6,0.5h16.1C19.3,28.2,18.9,27.8,18.5,27.4z M25.1,11.7
		H4.9v-1h20.2V11.7z M24.6,9.2v0.5H5.4V9.2H24.6z M5.9,8.3V7.8h18.3v0.5H5.9z M3.7,2.7h6.4l1.2,2C11.5,4.9,11.7,5,12,5h14.5v6.6H26
		V9.7h-0.5V8.4H25V6.9H5.1v1.4H4.6v1.4H4.2v1.9H3.7V2.7z"/>
	<path d="M17.4,24.5c0-0.1,0-0.3-0.1-0.4h-2.8v-4.8h4.1c0.2-0.3,0.5-0.6,0.9-0.9h-5.9v6.7h3.9C17.4,24.9,17.4,24.7,17.4,24.5z"/>
	<g>
		<path class="st0" d="M23.7,18.3c-0.8,0.1-1.7,0.4-2.4,0.9c-0.4,0.3-1.1,1-1.4,1.4c-0.4,0.6-0.6,1.2-0.8,1.9
			c-0.1,0.5-0.1,1.4,0,1.9c0.3,1.7,1.4,3.1,2.9,3.8c0.8,0.4,1.5,0.5,2.4,0.5c0.9,0,1.4-0.2,2.1-0.5c1.5-0.8,2.6-2.2,2.8-3.9
			c0.1-0.3,0.1-1.1,0-1.5c-0.3-2-1.6-3.6-3.5-4.2c-0.5-0.2-0.9-0.2-1.5-0.2C24,18.3,23.7,18.3,23.7,18.3z M25.2,19.3
			c1.7,0.4,3,1.8,3.3,3.6c0,0.2,0,1,0,1.3c-0.4,2-2.1,3.5-4.2,3.5c-1,0-1.9-0.3-2.7-1c-1.1-0.9-1.7-2.3-1.6-3.7
			c0.1-0.5,0.2-1,0.4-1.5c0.6-1.3,1.8-2.1,3.2-2.4C23.9,19.1,24.7,19.2,25.2,19.3z"/>
		<path class="st0" d="M24,20.9c-0.2,0.1-0.3,0.2-0.3,1.1l0,0.9h-0.8c-0.7,0-0.8,0-1,0.1c-0.2,0.1-0.3,0.4-0.2,0.6
			c0.1,0.2,0.2,0.3,1.1,0.3h0.8l0,0.9c0,0.8,0,0.9,0.1,1c0.2,0.3,0.6,0.3,0.8,0c0.1-0.1,0.1-0.2,0.1-1v-0.9h0.9c0.8,0,0.9,0,1-0.1
			c0.3-0.2,0.3-0.7,0-0.8c-0.1-0.1-0.2-0.1-1-0.1h-0.8V22c0-0.8,0-0.9-0.1-1c-0.1-0.1-0.3-0.2-0.4-0.2C24.2,20.8,24.1,20.9,24,20.9z
			"/>
	</g>
</g>
</svg>
