<?xml version="1.0" encoding="utf-8"?>
<!-- Generator: Adobe Illustrator 25.1.0, SVG Export Plug-In . SVG Version: 6.00 Build 0)  -->
<svg version="1.1" id="Layer_1" xmlns="http://www.w3.org/2000/svg" xmlns:xlink="http://www.w3.org/1999/xlink" x="0px" y="0px"
	 viewBox="0 0 99 95" style="enable-background:new 0 0 99 95;" xml:space="preserve">
<g>
	<path d="M50.3,3.9c12.2,0,24.7,2.1,37.1,5.8c2.2,0.6,4.5,1.4,6.7,2.2c1.1,0.3,1,0.3,0.8,1.4c-0.5,3-1,6.3-1.6,9.3
		c-2.9,13.6-8,26.5-15.9,38.3c-4.3,6.4-9.1,12.5-14.4,18c-4.2,4.3-8.5,8.2-13.2,12c-0.3,0.3-0.5,0.2-0.8,0c-5-4-9.6-8.3-14-13
		c-7.5-7.9-13.8-16.5-18.9-26.1C9.8,39.9,6.1,27.4,4.2,14.3c0-0.5,0-0.8-0.2-1.3c-0.2-0.6,0.2-1,0.6-1.1c9-3.2,18.1-5.5,27.6-6.7
		c3.7-0.5,7.4-0.8,11.2-1C45.5,3.9,47.5,3.9,50.3,3.9z M88.6,16.4c0-0.6-0.5-0.6-0.8-0.6c-9.3-3-18.8-4.8-28.6-5.6
		c-5.9-0.5-11.9-0.6-18-0.2c-5.6,0.3-11.2,1.1-16.7,2.2c-4.5,1-9,2.1-13.5,3.5c-0.6,0.2-1,0.5-0.8,1.3c0.2,1,0.3,1.8,0.5,2.7
		c2.7,14.1,7.9,27.3,15.9,39.1c3.4,5,6.9,9.5,10.9,13.8c3.5,3.7,7.2,7.4,11.1,10.7c0.5,0.3,0.8,0.5,1.3,0c3.2-2.9,6.4-5.8,9.3-8.8
		c3.2-3.4,6.3-6.9,9-10.6c9.6-12.7,15.9-26.6,19.1-42.2C88,19.9,88.3,18.1,88.6,16.4z"/>
	<path d="M37,50.4c0.3,0,0.5,0.3,0.6,0.5c2.7,3.9,5.8,7.4,9.1,10.7c0.6,0.6,1.4,1.3,2.1,1.9c0.3,0.3,0.6,0.3,1.1,0
		c4.2-3.7,7.9-7.9,11.1-12.4c0.2-0.2,0.2-0.3,0.3-0.5c0.3-0.5,0.5-0.5,1-0.2c1.1,0.8,2.2,1.6,3.5,2.4c0.5,0.3,0.5,0.6,0.2,1.1
		c-3.5,5-7.5,9.6-12.2,13.6c-1.3,1.1-2.6,2.2-3.9,3.2c-0.3,0.3-0.6,0.3-1,0c-6.1-4.8-11.4-10.4-15.9-16.7c-0.6-1-0.6-1,0.3-1.4
		c1.1-0.6,2.1-1.4,3.2-2.1C36.6,50.7,36.8,50.5,37,50.4z"/>
	<path d="M45,20.7c0,2.2,0,2.1-1.3,2.2c-5.1,0.5-10.3,1.4-15.2,2.9c-0.8,0.2-1,0.5-0.8,1.3c1,4.8,2.4,9.3,4.3,13.6
		c0.3,0.6,0.2,1-0.5,1.3c-1.3,0.5-2.4,1.1-3.5,1.6c-0.6,0.3-0.8,0.2-1.1-0.5c-1.8-4.3-3.4-8.7-4.3-13.3c-0.5-2.2-0.8-4.5-1.1-6.7
		c-0.2-0.6,0-1,0.6-1.1c6.4-2.4,13-3.9,19.7-4.7c0.8-0.2,1.6-0.2,2.4-0.2c0.5,0,0.6,0.2,0.6,0.6C45,19.1,45,20.2,45,20.7z"/>
	<path d="M55.7,17.5c4.3,0.3,8.8,1.1,13.5,2.4c2.6,0.6,5.1,1.4,7.7,2.4c0.6,0.2,0.8,0.5,0.6,1.1c-1,6.9-2.6,13.6-5.5,20.1
		c-0.5,1-0.5,1-1.3,0.5c-1.1-0.5-2.2-1.1-3.4-1.6c-0.6-0.3-0.8-0.5-0.5-1.3c2.1-4.5,3.4-9.1,4.3-14c0.2-0.6,0-0.8-0.6-1
		c-5.3-1.6-10.6-2.6-16.2-3c-0.6,0-0.8-0.2-0.8-0.8c0.2-1.1,0.2-2.2,0.2-3.4C54,17.3,54,17.3,55.7,17.5z"/>
	<path d="M54.4,39.3c0,2.9-2.2,5-5,5c-2.9,0-5-2.2-5-5s2.2-5,5-5.1C52.2,34.3,54.4,36.6,54.4,39.3z"/>
</g>
</svg>
